<?xml version="1.0" ?><!DOCTYPE svg  PUBLIC '-//W3C//DTD SVG 1.1//EN'  'http://www.w3.org/Graphics/SVG/1.1/DTD/svg11.dtd'><svg enable-background="new -0.9 -0.9 31 29" height="29px" version="1.1" viewBox="-0.9 -0.9 31 29" width="31px" xml:space="preserve" xmlns="http://www.w3.org/2000/svg" xmlns:xlink="http://www.w3.org/1999/xlink"><defs/><path clip-rule="evenodd" d="M28.3,27c-1.4,1.4-3.7,1.4-5.1,0L12.6,16.4l4.7-4.7l0.4-0.4  l10.6,10.6C29.7,23.3,29.7,25.6,28.3,27z M17.7,12.8c-0.6,0.6-2.9,2.9-3.5,3.5c0.2,0.2,1.1,1.1,2.2,2.2l3.5-3.5  C18.8,13.9,17.9,13,17.7,12.8z M27.5,22.7l-7.2-7.2L16.8,19c2.9,2.9,7.2,7.2,7.2,7.2c1,1,2.5,1,3.5,0C28.5,25.2,28.5,23.6,27.5,22.7  z M15.8,7.5l-1.3,1.3l2.4,2.4l-4.3,4.3L10.1,13l0,0c-0.9-0.5-2.1-0.4-2.9,0.4c-0.6,0.6-0.8,1.4-0.6,2.2c0.2,0.5,0.1,1.1-0.3,1.5  c-0.5,0.5-1.4,0.5-2,0l-3.9-3.9c-0.5-0.5-0.5-1.4,0-2C0.8,10.8,1.5,10.7,2,11l0,0c0.7,0.1,1.5-0.1,2.1-0.6c0.8-0.8,0.9-2,0.3-2.9  l0.2-0.2l0,0l3.7-3.7l0.4-0.4L10,1.9c0.8,0.4,1.5,0.2,2.2-0.3c0.7-0.5,2.6-1.9,5.8-1.5C21.3,0.4,23.2,3,23.2,3l-0.7,0.7  C13.8,2.6,15.8,7.5,15.8,7.5z" fill="#0D0D0D" fill-rule="evenodd"/></svg>